<svg xmlns="http://www.w3.org/2000/svg" height="64" viewBox="0 0 65.236 65.236" width="64"><path fill="#d4953f" d="M61.754 25.723l-8.59-5.124-4.977-14.587c-1.666-4.532-2.8-6.01-7.795-6.01H3.482C1.56.001 0 2.694 0 6.011v40.853c0 3.32 1.56 6.015 3.483 6.015h1.849c.23-6.602 3.394-11.839 7.275-11.839 3.88 0 7.045 5.237 7.275 11.839h25.03c.138-3.898 1.315-7.633 3.372-9.88 3.404-3.725 7.912-1.981 10.07 3.897.684 1.865 1.047 3.923 1.118 5.983h2.282c1.924 0 3.482-2.694 3.482-6.014v-15.13c.002-3.323-1.425-4.845-3.48-6.014zm-13.072-3.484H32.81c-.239 0-.43-.33-.43-.739V6.947c0-.409.191-.739.43-.739h11.367c.236 0 .586.151.76.74l4.173 14.551c0 .41-.19.74-.427.74zm15.94 18.583c0 1.11-.52 2.01-1.164 2.01h-3.59c-.642 0-1.163-.9-1.163-2.01v-4.523c0-1.11.52-2.01 1.164-2.01h3.59c.643 0 1.164.9 1.164 2.01v4.523zM12.52 42.381c-3.65 0-6.62 5.128-6.62 11.43 0 6.301 2.97 11.426 6.62 11.426s6.618-5.125 6.618-11.427c0-6.301-2.968-11.43-6.618-11.43zm0 19.23c-2.493 0-4.518-3.5-4.518-7.8s2.026-7.8 4.518-7.8c2.491 0 4.517 3.5 4.517 7.8s-2.026 7.8-4.517 7.8zm39.699-19.23c-3.65 0-6.62 5.128-6.62 11.43 0 6.301 2.97 11.426 6.62 11.426s6.619-5.125 6.619-11.427c0-6.301-2.97-11.43-6.62-11.43zm0 19.23c-2.493 0-4.519-3.5-4.519-7.8s2.027-7.8 4.519-7.8 4.517 3.5 4.517 7.8-2.026 7.8-4.517 7.8z"/></svg>